<svg xmlns="http://www.w3.org/2000/svg" viewBox="0 0 500 380" width="500" height="380">
  <!-- Top surface -->
  <rect x="10" y="15" width="480" height="22" rx="5" ry="5" fill="#A07850"/>
  <!-- Top surface highlight -->
  <rect x="18" y="18" width="450" height="10" rx="3" ry="3" fill="#B08860" opacity="0.5"/>
  <!-- Main body -->
  <rect x="15" y="34" width="470" height="290" rx="4" ry="4" fill="#8B6840"/>
  <!-- Top row: 3 drawers -->
  <rect x="25" y="44" width="142" height="78" rx="4" ry="4" fill="#9B7850"/>
  <rect x="179" y="44" width="142" height="78" rx="4" ry="4" fill="#9B7850"/>
  <rect x="333" y="44" width="142" height="78" rx="4" ry="4" fill="#9B7850"/>
  <!-- Top row pulls -->
  <rect x="84" y="79" width="26" height="8" rx="3" ry="3" fill="#C0A070"/>
  <rect x="238" y="79" width="26" height="8" rx="3" ry="3" fill="#C0A070"/>
  <rect x="392" y="79" width="26" height="8" rx="3" ry="3" fill="#C0A070"/>
  <!-- Mid row: 3 drawers -->
  <rect x="25" y="132" width="142" height="78" rx="4" ry="4" fill="#9B7850"/>
  <rect x="179" y="132" width="142" height="78" rx="4" ry="4" fill="#9B7850"/>
  <rect x="333" y="132" width="142" height="78" rx="4" ry="4" fill="#9B7850"/>
  <!-- Mid row pulls -->
  <rect x="84" y="167" width="26" height="8" rx="3" ry="3" fill="#C0A070"/>
  <rect x="238" y="167" width="26" height="8" rx="3" ry="3" fill="#C0A070"/>
  <rect x="392" y="167" width="26" height="8" rx="3" ry="3" fill="#C0A070"/>
  <!-- Bottom row: 3 drawers -->
  <rect x="25" y="220" width="142" height="78" rx="4" ry="4" fill="#9B7850"/>
  <rect x="179" y="220" width="142" height="78" rx="4" ry="4" fill="#9B7850"/>
  <rect x="333" y="220" width="142" height="78" rx="4" ry="4" fill="#9B7850"/>
  <!-- Bottom row pulls -->
  <rect x="84" y="255" width="26" height="8" rx="3" ry="3" fill="#C0A070"/>
  <rect x="238" y="255" width="26" height="8" rx="3" ry="3" fill="#C0A070"/>
  <rect x="392" y="255" width="26" height="8" rx="3" ry="3" fill="#C0A070"/>
  <!-- Bottom base rail -->
  <rect x="15" y="318" width="470" height="18" rx="3" ry="3" fill="#7A5C35"/>
  <!-- Front left leg -->
  <rect x="30" y="330" width="26" height="38" rx="4" ry="4" fill="#9B7850"/>
  <!-- Front right leg -->
  <rect x="444" y="330" width="26" height="38" rx="4" ry="4" fill="#9B7850"/>
  <!-- Back left leg -->
  <rect x="52" y="330" width="16" height="28" rx="3" ry="3" fill="#7A5C35"/>
  <!-- Back right leg -->
  <rect x="432" y="330" width="16" height="28" rx="3" ry="3" fill="#7A5C35"/>
</svg>
